<?xml version="1.0" standalone="no"?>
<!DOCTYPE svg PUBLIC "-//W3C//DTD SVG 20010904//EN"
 "http://www.w3.org/TR/2001/REC-SVG-20010904/DTD/svg10.dtd">
<svg version="1.0" xmlns="http://www.w3.org/2000/svg"
 width="476.000000pt" height="476.000000pt" viewBox="0 0 476.000000 476.000000"
 preserveAspectRatio="xMidYMid meet">
<metadata>
Created by potrace 1.11, written by Peter Selinger 2001-2013
</metadata>
<g transform="translate(0.000000,476.000000) scale(0.100000,-0.100000)"
fill="#000000" stroke="none">
<path d="M2130 4749 c-978 -112 -1784 -848 -2004 -1831 -44 -197 -59 -365 -53
-608 5 -240 24 -374 82 -585 253 -923 1031 -1602 1965 -1715 121 -14 437 -12
560 4 246 34 462 98 680 202 163 79 250 131 395 240 520 390 864 996 934 1646
14 123 14 435 1 553 -39 345 -158 695 -337 990 -130 212 -340 454 -526 604
-336 271 -730 439 -1160 496 -127 16 -409 18 -537 4z m818 -286 c17 -13 32
-29 32 -35 0 -6 11 -26 25 -44 14 -18 25 -44 25 -59 0 -28 43 -127 69 -157 8
-10 21 -18 27 -18 7 0 22 -21 34 -47 12 -27 33 -62 46 -80 l24 -32 -20 -62
c-12 -34 -34 -81 -50 -104 -24 -36 -54 -95 -91 -180 -4 -11 -15 -49 -23 -85
-8 -36 -24 -103 -36 -150 -12 -47 -25 -103 -29 -125 -7 -36 -36 -159 -60 -255
-5 -19 -17 -69 -26 -110 -23 -104 -32 -144 -50 -225 -9 -38 -20 -90 -25 -115
-5 -25 -14 -66 -20 -92 -21 -97 -14 -109 54 -89 17 5 67 17 111 26 130 27 159
37 188 68 l28 28 24 -25 c32 -34 43 -33 53 7 l9 32 8 -37 c7 -35 10 -38 40
-38 29 0 34 -4 53 -50 16 -38 26 -50 42 -50 13 0 24 8 27 20 5 18 10 15 46
-26 37 -42 40 -51 42 -107 3 -85 -6 -102 -70 -138 -30 -17 -58 -35 -61 -40 -3
-5 -20 -9 -37 -9 -28 0 -155 -21 -317 -50 -162 -30 -285 -68 -320 -100 -30
-27 -60 -80 -60 -105 0 -8 -4 -23 -9 -33 -8 -16 -26 -75 -50 -167 -6 -22 -21
-78 -35 -125 -13 -47 -32 -112 -41 -145 -9 -33 -20 -71 -25 -85 -4 -14 -15
-52 -25 -85 -9 -33 -21 -70 -26 -83 -5 -13 -9 -31 -9 -41 0 -9 -15 -35 -33
-57 -17 -21 -53 -82 -79 -134 -69 -141 -153 -320 -168 -360 -8 -19 -22 -48
-32 -65 -17 -29 -17 -26 -12 115 3 80 8 156 11 170 12 52 10 165 -3 186 -10
16 -10 36 -3 80 21 128 22 164 7 182 -13 15 -13 27 -1 97 8 44 18 94 24 111 5
17 9 43 9 58 0 15 7 55 14 89 8 34 23 111 32 172 9 60 21 117 27 126 24 39
-19 62 -75 40 -13 -5 -57 -16 -98 -26 -41 -9 -84 -20 -95 -25 -11 -4 -47 -14
-80 -21 -33 -7 -103 -28 -155 -47 -52 -19 -107 -36 -122 -39 -16 -3 -28 -9
-28 -14 0 -5 -9 -9 -21 -9 -23 0 -61 -18 -71 -34 -4 -6 -5 -19 -2 -28 3 -10 2
-28 -1 -39 -6 -18 -12 -20 -44 -15 -30 5 -46 0 -82 -23 l-45 -28 -34 24 c-43
29 -45 29 -77 -3 -21 -21 -30 -24 -52 -16 -14 5 -53 17 -86 27 -48 13 -65 24
-83 51 -12 18 -22 38 -22 44 0 5 -4 10 -9 10 -10 0 -61 126 -61 151 0 9 -11
33 -25 53 -29 43 -29 43 -10 62 8 9 15 26 15 40 0 13 4 24 8 24 5 0 15 11 22
25 7 14 22 25 32 25 21 0 34 12 107 100 88 106 190 280 261 445 12 28 31 70
42 95 20 46 34 79 49 115 8 20 34 82 50 120 4 11 33 82 64 158 31 76 60 146
65 155 4 9 16 33 25 52 9 19 28 58 43 85 15 28 35 75 46 105 36 108 67 195 77
212 5 10 9 27 9 38 0 11 18 49 40 84 44 69 48 84 25 92 -9 4 -15 19 -15 40 0
19 -6 50 -14 69 -13 30 -13 35 3 49 10 9 23 16 29 16 7 0 12 3 12 8 0 12 42
34 80 43 65 15 105 -5 159 -77 26 -36 63 -94 81 -130 18 -35 37 -64 41 -64 5
0 9 -5 9 -12 0 -6 10 -22 22 -35 23 -24 23 -23 28 -235 1 -31 -38 -96 -87
-148 -18 -19 -49 -69 -69 -110 -72 -152 -215 -431 -287 -560 -17 -30 -44 -82
-60 -115 -16 -33 -42 -79 -58 -103 -16 -24 -29 -45 -29 -48 0 -3 -8 -18 -19
-32 -23 -33 -101 -184 -101 -196 0 -5 -11 -24 -25 -42 -28 -37 -30 -45 -13
-62 14 -14 38 -2 90 46 58 54 68 59 138 66 36 3 115 13 175 21 61 9 139 18
175 21 87 7 163 30 188 57 28 31 44 90 72 267 5 30 16 96 25 145 9 50 21 115
25 145 5 30 16 96 25 145 16 87 20 111 44 259 6 37 13 71 16 75 2 4 9 43 15
87 21 147 39 250 60 342 6 23 10 104 10 180 0 128 -2 140 -25 181 -25 42 -34
101 -16 101 5 0 23 21 39 48 41 62 108 117 155 126 20 4 37 11 37 15 0 5 18
18 41 29 47 23 80 17 137 -25z"/>
</g>
</svg>
